<svg width="22" height="24" viewBox="0 0 22 24" fill="none" xmlns="http://www.w3.org/2000/svg">
<path d="M19.5 5C18.4 3.95 17.1 3.25 14.3 3.25H12.65L14.25 1.5C14.55 1.2 14.5 0.699999 14.2 0.449999C13.9 0.149999 13.4 0.199999 13.15 0.499999L11 2.8L8.85 0.499999C8.55 0.199999 8.1 0.199999 7.8 0.449999C7.5 0.749999 7.45 1.2 7.75 1.5L9.35 3.25H7.7C4.9 3.25 3.6 3.95 2.5 5C1.45 6.1 0.75 7.4 0.75 10.2V16.75C0.75 19.6 1.45 20.9 2.5 22C3.6 23.05 4.9 23.75 7.7 23.75H14.25C17.1 23.75 18.4 23.05 19.5 22C20.55 20.9 21.25 19.6 21.25 16.8V10.25C21.25 7.4 20.55 6.1 19.5 5ZM19.75 16.8C19.75 19.4 19.1 20.3 18.45 20.95C17.75 21.6 16.85 22.25 14.25 22.25H7.7C5.1 22.25 4.2 21.6 3.55 20.95C2.9 20.25 2.25 19.35 2.25 16.75V10.25C2.25 7.65 2.9 6.75 3.55 6.1C4.25 5.45 5.15 4.8 7.75 4.8H14.3C16.9 4.8 17.8 5.45 18.45 6.1C19.1 6.8 19.75 7.7 19.75 10.3V16.8ZM16.3 12.5L11.75 13.9V12.05C11.75 11.8 11.65 11.6 11.45 11.45C11.25 11.3 11 11.25 10.8 11.35L5.25 13.05C4.85 13.15 4.65 13.6 4.75 14C4.85 14.4 5.3 14.6 5.7 14.5L10.25 13.1V14.95C10.25 15.2 10.35 15.4 10.55 15.55C10.7 15.65 10.85 15.7 11 15.7C11.05 15.7 11.15 15.7 11.2 15.65L16.75 13.95C17.15 13.85 17.35 13.4 17.25 13C17.15 12.6 16.7 12.4 16.3 12.5Z" fill="#999999"/>
</svg>
